<svg xmlns="http://www.w3.org/2000/svg" viewBox="0 0 200 200" width="32" height="32">
  <!-- Background -->
  <rect width="200" height="200" fill="#f5f5f5"/>
  
  <!-- SR Logo -->
  <g transform="translate(50, 40)">
    <!-- S -->
    <path d="M0 0 L40 0 L40 15 L15 15 L15 35 L35 35 L35 50 L0 50 L0 35 L25 35 L25 15 L5 15 L5 0 Z" fill="#000"/>
    
    <!-- R -->
    <path d="M50 0 L90 0 L90 25 L75 25 L90 50 L70 50 L60 30 L65 30 L65 15 L50 15 L50 50 L50 0 Z" fill="#000"/>
    <rect x="65" y="0" width="10" height="25" fill="#000"/>
  </g>
  
  <!-- Bottom lines -->
  <rect x="30" y="120" width="140" height="8" fill="#000"/>
  <rect x="30" y="140" width="60" height="8" fill="#000"/>
  <rect x="110" y="140" width="60" height="8" fill="#000"/>
  
  <!-- Shrik text -->
  <text x="100" y="180" text-anchor="middle" font-family="serif" font-size="24" font-weight="normal" fill="#000">Shrik</text>
</svg>